<svg width="24" height="24" viewBox="0 0 24 24" fill="none" xmlns="http://www.w3.org/2000/svg">
<path d="M7.996 23.0458C7.996 23.8692 7.475 24.2093 6.898 23.8692L0.67 20.1809C0.482 20.0755 0.324 19.8989 0.195 19.6513C0.066 19.4037 0 19.1572 0 18.9143V0.873213C0 0.200239 0.341 -0.104258 1.112 0.35071L7.956 4.40277C8.055 4.52006 7.982 3.71439 7.996 23.0458V23.0458ZM8.853 6.07928L16.005 19.7852L8.853 15.5755V6.07928ZM24 6.36482V23.0458C24 23.31 23.938 23.5233 23.812 23.6868C23.687 23.8503 23.517 23.932 23.303 23.932C23.089 23.932 22.879 23.8633 22.674 23.7259L16.768 20.2437L24 6.36482ZM23.96 4.46556C23.96 4.49755 22.815 6.71078 20.525 11.1041C18.235 15.4973 16.893 18.0708 16.5 18.8196L11.277 8.78539L15.616 0.445495C15.852 -0.0142117 16.336 -0.0947789 16.661 0.0971607L23.907 4.37078C23.942 4.39092 23.96 4.42291 23.96 4.46556V4.46556Z" fill="black"/>
</svg>
